<svg xmlns="http://www.w3.org/2000/svg" width="151" height="49" fill="none" viewBox="0 0 151 49">
    <path fill="#04D" d="M39.623 24.076c0-3.664 2.691-6.356 6.505-6.356 3.196 0 5.607 1.889 6.298 4.673h-2.522c-.58-1.476-1.964-2.448-3.776-2.448-2.43 0-4.075 1.738-4.075 4.13 0 2.393 1.645 4.15 4.075 4.15 1.813 0 3.196-.99 3.776-2.467h2.522c-.691 2.785-3.102 4.673-6.298 4.673-3.814 0-6.505-2.692-6.505-6.355zM61.251 25.57c0-1.625-1.084-2.784-2.71-2.784-1.627 0-2.73 1.159-2.73 2.785 0 1.626 1.103 2.785 2.73 2.785 1.626 0 2.71-1.159 2.71-2.785zm-7.682 0c0-2.803 2.056-4.859 4.972-4.859 2.916 0 4.972 2.056 4.972 4.86 0 2.804-2.056 4.86-4.972 4.86-2.916 0-4.972-2.056-4.972-4.86zM64.972 25.385c0-3.084 1.832-4.673 4.56-4.673 2.73 0 4.561 1.57 4.561 4.673v4.803H71.87v-4.803c0-1.757-.934-2.598-2.337-2.598-1.4 0-2.335.841-2.335 2.598v4.803h-2.225v-4.803zM74.843 20.955h2.43l2.56 7.197 2.56-7.197h2.375l-3.627 9.234H78.47l-3.626-9.234zM92.75 24.58c-.355-1.233-1.365-1.85-2.579-1.85-1.253 0-2.225.636-2.58 1.85h5.16zm-7.55.99c0-2.803 2.055-4.859 4.971-4.859s4.934 2.056 4.934 4.86v.785h-7.57c.3 1.346 1.327 2.056 2.636 2.056.99 0 1.72-.28 2.186-.879h2.375c-.692 1.758-2.374 2.898-4.56 2.898-2.917 0-4.973-2.056-4.973-4.86zM96.565 24.824c0-2.786 1.645-4.113 4.056-4.113 2.412 0 4.037 1.328 4.037 4.15v.056h-2.205v-.093c0-1.496-.748-2.038-1.832-2.038s-1.832.542-1.832 2.038v5.363h-2.224v-5.363zM105.856 26.636v-8.953h2.224v3.27h4.767v2.02h-4.767v3.663c0 1.234.636 1.72 1.552 1.72.915 0 1.551-.468 1.551-1.72v-.243h2.224v.243c0 2.561-1.532 3.795-3.775 3.795-2.244 0-3.776-1.234-3.776-3.795zM122.006 24.58c-.355-1.233-1.364-1.85-2.579-1.85-1.252 0-2.224.636-2.579 1.85h5.158zm-7.551.99c0-2.803 2.056-4.859 4.972-4.859 2.916 0 4.934 2.056 4.934 4.86v.785h-7.57c.3 1.346 1.328 2.056 2.636 2.056.99 0 1.719-.28 2.187-.879h2.374c-.692 1.758-2.374 2.898-4.561 2.898-2.916 0-4.972-2.056-4.972-4.86zM133.129 25.57c0-1.625-1.084-2.784-2.71-2.784-1.627 0-2.729 1.159-2.729 2.785 0 1.626 1.102 2.785 2.729 2.785 1.626 0 2.71-1.159 2.71-2.785zm-7.682-.092c0-3.159 2.355-4.767 4.598-4.767 1.327 0 2.429.56 3.084 1.59v-5.384h2.224v8.58c0 2.99-2.018 4.934-4.916 4.934-2.934 0-4.99-2.019-4.99-4.953zM137.504 20.955h2.224v9.234h-2.224v-9.234zm-.355-2.673c0-.86.617-1.495 1.477-1.495.859 0 1.477.635 1.477 1.495 0 .86-.618 1.477-1.477 1.477-.86 0-1.477-.617-1.477-1.477zM141.879 25.385c0-3.084 1.831-4.673 4.56-4.673 2.73 0 4.561 1.57 4.561 4.673v4.803h-2.225v-4.803c0-1.757-.934-2.598-2.336-2.598-1.402 0-2.336.841-2.336 2.598v4.803h-2.224v-4.803zM24.519 1.215c.005.676-.54 1.228-1.215 1.232-.676.005-1.228-.54-1.232-1.214-.006-.676.54-1.228 1.215-1.233.675-.005 1.227.54 1.232 1.215zM2.447 24.117c.005.676-.54 1.228-1.215 1.233-.675.005-1.227-.54-1.232-1.215-.005-.676.54-1.228 1.215-1.233.676-.004 1.228.54 1.232 1.215zM7.46 18.752c1.225.009 2.226-.977 2.233-2.203.01-1.224-.977-2.225-2.202-2.234-1.225-.009-2.225.978-2.234 2.203-.008 1.225.978 2.225 2.203 2.234zM17.942 8.051c.01 1.225-.977 2.225-2.202 2.234-1.225.009-2.225-.977-2.234-2.203-.009-1.225.977-2.225 2.203-2.233 1.225-.009 2.225.977 2.233 2.202zM29.054 8.15c.046 1.224 1.075 2.18 2.3 2.135 1.224-.046 2.18-1.076 2.134-2.3-.045-1.225-1.075-2.18-2.3-2.135-1.224.046-2.18 1.075-2.134 2.3zM24.519 47.004c.005-.675-.54-1.227-1.215-1.232-.676-.005-1.228.54-1.232 1.215-.006.675.54 1.227 1.215 1.233.675.004 1.227-.54 1.232-1.216zM7.46 29.468c1.225-.01 2.226.977 2.233 2.202.01 1.225-.977 2.225-2.202 2.234-1.225.009-2.225-.977-2.234-2.203-.008-1.225.978-2.225 2.203-2.233zM17.942 40.167c.01-1.226-.977-2.225-2.202-2.235-1.225-.008-2.225.978-2.234 2.203-.009 1.226.977 2.225 2.203 2.234 1.225.01 2.225-.977 2.233-2.202zM29.054 40.07c.046-1.226 1.075-2.181 2.3-2.136 1.224.046 2.18 1.075 2.134 2.3-.045 1.225-1.075 2.18-2.3 2.134-1.224-.046-2.18-1.074-2.134-2.299z"/>
    <path fill="#04D" d="M23.942 31.954c-4.336 0-7.851-3.51-7.861-7.845.01-4.334 3.525-7.844 7.861-7.844 1.726 0 3.322.556 4.618 1.5.824.6 1.969.483 2.69-.239l2.587-2.586c.55-.55.522-1.45-.062-1.964l-.003-.003c-.755-.666-1.833-.848-2.748-.427-.32.148-.677.23-1.053.227-1.374-.01-2.419-1.245-2.47-3.012-.072-2.44-1.69-4.124-3.976-4.108-1.967.014-4.06 1.091-4.16 5.24-.03 1.218-.927 2.3-2.133 2.474-.886.127-1.669-.23-2.194-.823-.051-.06-.103-.121-.161-.176l-.007-.007v.001c-.5-.469-1.207-.719-1.978-.56-.824.168-1.503.825-1.696 1.643-.21.896.133 1.717.745 2.226.645.696.937 1.723.463 2.83-.399.932-1.367 1.495-2.38 1.488-.145 0 .215.002-.164 0-2.286-.019-4.082 1.835-3.987 4.12-.095 2.285 1.702 4.139 3.988 4.121.378-.003.018 0 .162 0 1.014-.008 1.982.555 2.382 1.488.473 1.106.181 2.133-.464 2.829-.612.51-.954 1.33-.745 2.227.193.818.872 1.474 1.696 1.642.77.159 1.479-.09 1.977-.56l.008-.006c.058-.055.11-.115.161-.177.525-.59 1.308-.948 2.194-.82 1.206.172 2.104 1.255 2.133 2.473.1 4.148 2.193 5.225 4.16 5.238 2.285.017 3.904-1.665 3.975-4.107.052-1.767 1.097-3.002 2.47-3.012.377-.002.734.08 1.054.227.915.422 1.993.239 2.748-.426l.003-.003c.584-.516.612-1.415.062-1.965l-2.587-2.587c-.721-.72-1.866-.837-2.69-.238-1.296.944-2.892 1.501-4.618 1.501z"/>
</svg>
